<?xml version="1.0" encoding="UTF-8"?>
<!-- Generator: Adobe Illustrator 25.3.1, SVG Export Plug-In . SVG Version: 6.00 Build 0)  -->
<svg version="1.1" id="Layer_1" xmlns="http://www.w3.org/2000/svg" xmlns:xlink="http://www.w3.org/1999/xlink" x="0px" y="0px" viewBox="0 0 512 512" style="enable-background:new 0 0 512 512;" xml:space="preserve">
<style type="text/css">
	.st0{fill:#4F8CBD;}
	.st1{fill:#444444;}
	.st2{fill:#D5AF76;}
	.st3{fill:#E79824;}
</style>
<g>
	<g>
		<rect x="296.7" y="242.6" class="st0" width="181.4" height="6.6"/>
		<path class="st0" d="M291.8,375.5c-65,0-114.4-53.6-114.4-122v-0.8c0-68,49-121.2,114.4-121.2c40.1,0,68,16.9,92.9,40.5l23.6-23.7    c-29.6-27.9-62.5-47.7-116.1-47.7c-81.1,0-140.9,60.2-148.6,136.1l-46.3,0l0,13.2l45.5,0c0,1.2,0,2.4,0,3.6v0.8    c0,84.9,62.9,152,148.2,152c53.6,0,87.4-20.7,118.2-51.9l-22-21.5C358.9,359.9,332.3,375.5,291.8,375.5z"/>
	</g>
	<g>
		<g>
			<path class="st1" d="M289.2,458.9c-2.2,0-4.3,0-6.5-0.1c-53.2-1.8-103.9-26.6-142.8-69.7c-74.9-83-68.7-211.2,13.9-285.8     c40.2-36.2,92.1-55,146.2-52.8c54.5,2.2,104.5,25.5,140.6,65.6l-9.8,8.8c-33.8-37.4-80.4-59.2-131.4-61.3     c-50.7-2.1-99.3,15.5-136.9,49.4c-77.2,69.7-83,189.5-12.9,267.2c36.5,40.4,83.9,63.6,133.5,65.3c53.2,1.8,106-20.9,152.5-65.8     l9.1,9.5C397.5,434.9,343.8,458.9,289.2,458.9z"/>
		</g>
		<g>
			<path class="st2" d="M288.2,511.3c-2.4,0-4.8,0-7.2-0.1c-32.9-1.1-65.2-9.4-95.9-24.7c-30.2-15.1-58.3-36.6-83.4-63.9     C53.3,370,28.6,298.9,34,227.5c5-66.7,35.4-125.6,85.6-165.9C173,18.7,235-2.2,298.8,1C361.9,4.3,423.8,31,477.7,78.2l-4.3,5     C420.6,36.9,360.1,10.8,298.5,7.6c-62.2-3.2-122.6,17.2-174.8,59.1C75,105.9,45.5,163.1,40.6,228     c-5.3,69.6,18.8,138.9,65.9,190.2c24.6,26.7,52,47.7,81.5,62.4c29.9,14.9,61.3,23,93.2,24c66.7,2.2,133.5-26.8,193-83.6l4.5,4.8     C420,481.8,354.3,511.3,288.2,511.3z"/>
		</g>
	</g>
	<g>
		<circle class="st3" cx="292.6" cy="247.8" r="34"/>
	</g>
</g>
</svg>